<svg width="243" height="19" viewBox="0 0 243 19" fill="none" xmlns="http://www.w3.org/2000/svg">
            <path fill-rule="evenodd" clip-rule="evenodd"
                d="M7.42218 18.6955L11.9932 7.5635L16.4662 18.6955L22.6092 1.3705L21.0362 0.731495L16.6132 11.5935L12.2142 0.682495L7.79018 11.5935L5.25918 4.2705C5.21018 4.0905 5.18518 3.9425 5.18518 3.8285C5.18518 3.2715 5.83318 2.9925 7.12718 2.9925L6.58618 1.3215H0.000183105V2.9925C0.754183 2.9925 1.29418 3.0835 1.62218 3.2625C1.73718 3.3285 1.83518 3.4265 1.91718 3.5575C1.98218 3.6885 2.05618 3.8445 2.13918 4.0245L7.42218 18.6955ZM27.5249 15.6238C26.9349 15.0678 26.6309 14.3798 26.6149 13.5598L25.9509 12.6758H34.0369C34.0689 10.4798 33.5039 8.84179 32.3409 7.7598C31.4399 6.90779 30.2759 6.4828 28.8509 6.4828C27.3599 6.4828 26.1239 6.9818 25.1409 7.9818C24.0749 9.0788 23.5429 10.5208 23.5429 12.3068C23.5429 13.9938 24.0349 15.4198 25.0179 16.5828C26.0009 17.7458 27.2539 18.3268 28.7769 18.3268C29.3669 18.3268 30.0389 18.2368 30.7929 18.0568V16.4348H29.6619C28.8099 16.4348 28.0979 16.1648 27.5249 15.6238ZM32.3579 11.1758C32.3579 10.9958 32.3339 10.7748 32.2839 10.5128C32.0389 9.0378 31.2849 8.3008 30.0239 8.3008C28.4999 8.3008 27.6229 9.2508 27.3939 11.1518L28.1309 11.1758H32.3579ZM50.7961 3.6067C51.6811 3.6067 52.2051 4.17269 52.3691 5.3027L54.0151 4.9587L53.5241 1.3217H42.9811L42.6381 3.0167C43.7681 3.0167 44.3331 3.4597 44.3331 4.3447V18.0817H47.3561V11.6427C47.3561 11.2497 47.5681 11.0037 47.9941 10.9057L52.0001 9.9227V8.74269H47.2571V3.6067H50.7961ZM57.5293 17.3686C56.7103 16.5496 56.3003 15.3216 56.3003 13.6826V4.24559C56.3003 3.24659 55.8423 2.8126 54.9243 2.9436L55.1213 1.5916L58.5373 0.952595L59.0773 1.3946V14.8866L60.5523 16.7796L58.4873 18.3266L57.5293 17.3686ZM67.1138 18.327C70.7668 18.327 72.5938 16.321 72.5938 12.307C72.5938 10.423 72.1108 8.97299 71.1438 7.956C70.1938 6.974 68.8498 6.482 67.1138 6.482C65.4748 6.482 64.1808 6.982 63.2308 7.981C62.2478 9.01299 61.7568 10.455 61.7568 12.307C61.7568 14.289 62.2318 15.788 63.1818 16.804C64.1158 17.82 65.4268 18.327 67.1138 18.327ZM69.7188 12.331C69.7188 9.595 68.8428 8.22699 67.0898 8.22699C66.2858 8.22699 65.6558 8.628 65.1968 9.43099C64.8038 10.136 64.6068 11.094 64.6068 12.307C64.6068 15.157 65.4338 16.582 67.0898 16.582C68.8428 16.582 69.7188 15.165 69.7188 12.331ZM77.2192 14.4607V7.21476H75.346C75.346 7.21476 74.7082 12.9459 74.5886 14.6245C74.4691 16.3029 75.2264 18.4725 77.817 18.4725C80.4077 18.4725 81.6832 16.3847 81.6832 16.3847L83.2377 18.4725L85.1905 16.8759L83.8355 15.0748V7.29656L83.2774 6.6825L80.0889 7.54218V8.77031C80.0889 8.77031 81.3245 9.38437 81.3245 10.1212V14.2969C81.3245 15.3204 79.6106 16.5075 78.8135 16.5075C78.0165 16.5075 77.2192 15.607 77.2192 14.4607ZM93.9077 9.7016C93.4157 9.1286 92.8587 8.8416 92.2367 8.8416C91.1717 8.8416 90.2707 9.2836 89.5327 10.1686L89.7297 11.9626V15.5746C89.7297 16.0506 89.8857 16.3616 90.1967 16.5086C90.4267 16.6066 90.8687 16.6566 91.5237 16.6566L91.2287 18.0816H86.9527V9.6526C86.9527 8.6856 86.4937 8.2516 85.5767 8.3496L85.7737 6.9976L89.1897 6.3596L89.7297 6.8266V8.4486C89.7457 8.4486 89.7627 8.4396 89.7797 8.4236C90.1887 7.8666 90.6887 7.4086 91.2787 7.0476C91.9007 6.6706 92.5067 6.4826 93.0967 6.4826C93.9317 6.4826 94.6287 6.7276 95.1857 7.2196L94.1537 9.62759L93.9077 9.7016ZM99.4113 4.3441C99.6573 4.06609 99.7803 3.7541 99.7803 3.4101C99.7803 3.0341 99.6493 2.7141 99.3873 2.4521C99.1253 2.1901 98.8133 2.0581 98.4533 2.0581C98.0763 2.0581 97.7573 2.1901 97.4953 2.4521C97.2333 2.7141 97.1013 3.0341 97.1013 3.4101C97.1013 3.7711 97.2333 4.0821 97.4953 4.3441C97.7573 4.6061 98.0763 4.73709 98.4533 4.73709C98.8303 4.73709 99.1493 4.6061 99.4113 4.3441ZM98.3303 17.3681C97.5113 16.5171 97.1013 15.2881 97.1013 13.6821V9.65209C97.1013 8.6531 96.6433 8.2191 95.7253 8.3501L95.9223 6.9981L99.3383 6.3591L99.8793 6.80209V14.8871L101.353 16.7791L99.2643 18.3271L98.3303 17.3681ZM109.463 17.4179C110.282 16.8449 110.692 16.0339 110.692 14.9849C110.692 14.1329 110.233 13.3219 109.316 12.5519C109.201 12.4539 108.93 12.2569 108.504 11.9629L106.76 10.8079C105.842 10.2019 105.392 9.7099 105.408 9.3329C105.424 8.67789 105.9 8.3499 106.834 8.3499C107.718 8.3499 108.283 8.5469 108.529 8.93989L108.824 10.0459C108.906 10.4229 109.209 10.6109 109.734 10.6109C109.963 10.6109 110.208 10.5869 110.471 10.5369V7.95689C109.684 6.9739 108.456 6.48289 106.784 6.48289C105.523 6.48289 104.531 6.75289 103.811 7.29289C103.106 7.80089 102.737 8.52989 102.705 9.4809C102.672 10.3979 103.098 11.2339 103.983 11.9869C104.195 12.1839 105.04 12.7409 106.514 13.6579C107.415 14.2149 107.866 14.7229 107.866 15.1819C107.866 16.0669 107.112 16.5089 105.605 16.5089H102.926V17.9339C103.811 18.1959 104.843 18.3269 106.023 18.3269C107.481 18.3269 108.628 18.0249 109.463 17.4179ZM120.35 10.7583C120.121 9.1533 119.474 8.3503 118.409 8.3503C117.508 8.3503 116.598 8.9153 115.681 10.0453L115.927 11.6923V18.0813H113.15V4.24629C113.15 3.24629 112.691 2.8123 111.773 2.9433L111.97 1.5913L115.386 0.952295L115.927 1.3953V8.2763C116.877 7.0803 118.048 6.4823 119.441 6.4823C120.538 6.4823 121.407 6.82629 122.046 7.5143C122.717 8.2683 123.054 9.3083 123.054 10.6353V18.0813H121.308L120.35 10.7583ZM135.39 4.3441C135.635 4.06609 135.758 3.7541 135.758 3.4101C135.758 3.0341 135.626 2.7141 135.364 2.4521C135.103 2.1901 134.79 2.0581 134.431 2.0581C134.054 2.0581 133.735 2.1901 133.473 2.4521C133.209 2.7141 133.078 3.0341 133.078 3.4101C133.078 3.7711 133.209 4.0821 133.473 4.3441C133.735 4.6061 134.054 4.73709 134.431 4.73709C134.808 4.73709 135.126 4.6061 135.39 4.3441ZM134.308 17.3681C133.487 16.5171 133.078 15.2881 133.078 13.6821V9.65209C133.078 8.6531 132.619 8.2191 131.702 8.3501L131.9 6.9981L135.316 6.3591L135.857 6.80209V14.8871L137.33 16.7791L135.241 18.3271L134.308 17.3681ZM144.557 8.3503C145.62 8.3503 146.269 9.1533 146.498 10.7583L147.455 18.0813H149.2V10.6113C149.2 9.28329 148.855 8.2513 148.169 7.51429C147.529 6.82629 146.67 6.4823 145.589 6.4823C144.227 6.4823 143.072 7.0803 142.123 8.27629H142.073V6.80129L141.532 6.35929L138.116 6.99829L137.921 8.3503C138.839 8.2183 139.297 8.65329 139.297 9.6523V18.0813H142.073V11.6923L141.827 10.0453C142.745 8.91529 143.654 8.3503 144.557 8.3503ZM165.197 17.9834C164.149 18.2124 163.216 18.3274 162.396 18.3274C161.25 18.3274 160.341 18.0074 159.669 17.3684C158.965 16.6804 158.644 15.7884 158.711 14.6904L159.325 3.3854L161.487 2.9434V6.7284H164.976V8.5954H161.487V14.8134C161.487 15.9434 161.963 16.5084 162.913 16.5084H165.197V17.9834ZM172.694 8.3503C173.757 8.3503 174.405 9.1533 174.634 10.7583L175.592 18.0813H177.337V10.6353C177.337 9.3083 177.001 8.2683 176.329 7.5143C175.692 6.82629 174.821 6.4823 173.726 6.4823C172.331 6.4823 171.16 7.0803 170.21 8.2763V1.3953L169.669 0.952295L166.253 1.5913L166.058 2.9433C166.976 2.8123 167.434 3.24629 167.434 4.24629V18.0813H170.21V11.6923L169.964 10.0453C170.882 8.9153 171.791 8.3503 172.694 8.3503ZM182.795 13.5598C182.809 14.3798 183.113 15.0678 183.704 15.6238C184.276 16.1648 184.989 16.4348 185.842 16.4348H186.973V18.0568C186.219 18.2368 185.547 18.3268 184.957 18.3268C183.433 18.3268 182.181 17.7458 181.196 16.5828C180.214 15.4198 179.723 13.9938 179.723 12.3068C179.723 10.5208 180.255 9.0788 181.319 7.9818C182.303 6.9818 183.54 6.4828 185.03 6.4828C186.456 6.4828 187.618 6.90779 188.519 7.7598C189.683 8.84179 190.249 10.4798 190.216 12.6758H182.131L182.795 13.5598ZM187.464 10.5128C187.513 10.7748 187.537 10.9958 187.537 11.1758H183.309L182.572 11.1518C182.803 9.2508 183.68 8.3008 185.203 8.3008C186.464 8.3008 187.218 9.0378 187.464 10.5128ZM213.02 11.7168C213.02 13.7978 212.456 15.4198 211.325 16.5828C210.162 17.7458 208.555 18.3268 206.507 18.3268C204.836 18.3268 203.444 17.8198 202.331 16.8038C201.069 15.6408 200.438 14.0018 200.438 11.8888V5.3028C200.438 4.4508 200.373 3.9018 200.242 3.6558C200.029 3.2138 199.552 2.9928 198.816 2.9928V1.3208H204.541L204.911 2.9928C203.781 2.9928 203.214 3.4188 203.214 4.2708V11.5938C203.214 13.1008 203.437 14.1418 203.88 14.7148C204.571 15.5998 205.433 16.0418 206.468 16.0418C208.752 16.0418 210.001 14.5098 210.215 11.4458L210.93 1.3208H213.02V11.7168ZM223.943 16.9266C224.867 16.1236 225.348 15.0426 225.38 13.6826C225.398 12.0776 224.765 10.7426 223.483 9.67659C223.351 9.56259 222.151 8.8496 219.883 7.5386C218.583 6.8016 217.95 5.9986 217.984 5.1306C218.017 4.5086 218.278 4.0336 218.771 3.7046C219.244 3.3616 219.893 3.2056 220.711 3.2386C221.81 3.2876 222.488 3.5416 222.751 3.9996C222.865 4.1966 222.981 4.6876 223.096 5.4746C223.178 5.9986 223.44 6.2616 223.882 6.2616C224.159 6.2616 224.504 6.1876 224.913 6.0396V2.4026C224.618 2.1576 224.11 1.8946 223.391 1.6166C222.441 1.2726 221.53 1.0996 220.662 1.0996C219.057 1.0996 217.771 1.5266 216.805 2.3796C215.837 3.2176 215.355 4.33359 215.355 5.72759C215.355 7.1726 215.984 8.40259 217.246 9.41959L219.017 10.5036L220.761 11.6106C222.023 12.3986 222.637 13.2606 222.605 14.1956C222.605 14.6876 222.391 15.1226 221.964 15.4996C221.474 15.9436 220.802 16.1646 219.949 16.1646L215.747 16.1156V17.9096C216.582 18.1716 217.827 18.3026 219.484 18.3026C221.384 18.3026 222.869 17.8446 223.943 16.9266ZM242.509 17.4675C242.509 17.6805 242.418 17.8765 242.238 18.0575C242.026 18.2365 241.813 18.3275 241.6 18.3275C241.191 18.3275 240.904 18.1465 240.739 17.7865L238.652 13.4615H231.525L230.566 15.7955C230.517 15.9105 230.491 16.0255 230.491 16.1405C230.491 16.5665 230.917 16.7795 231.771 16.7795L231.327 18.0815H225.947V16.7795C226.863 16.7795 227.419 16.5495 227.616 16.0905L232.778 3.5575C232.826 3.4265 232.852 3.3205 232.852 3.2385C232.852 2.7795 232.483 2.5505 231.744 2.5505L232.262 1.2475H235.922L242.436 17.1225C242.485 17.2375 242.509 17.3525 242.509 17.4675ZM237.644 11.3725H232.384L234.769 5.2535L237.644 11.3725Z"
                fill="black" />
            <mask id="mask0" mask-type="alpha" maskUnits="userSpaceOnUse" x="0" y="0" width="243" height="19">
                <path fill-rule="evenodd" clip-rule="evenodd"
                    d="M7.42218 18.6955L11.9932 7.5635L16.4662 18.6955L22.6092 1.3705L21.0362 0.731495L16.6132 11.5935L12.2142 0.682495L7.79018 11.5935L5.25918 4.2705C5.21018 4.0905 5.18518 3.9425 5.18518 3.8285C5.18518 3.2715 5.83318 2.9925 7.12718 2.9925L6.58618 1.3215H0.000183105V2.9925C0.754183 2.9925 1.29418 3.0835 1.62218 3.2625C1.73718 3.3285 1.83518 3.4265 1.91718 3.5575C1.98218 3.6885 2.05618 3.8445 2.13918 4.0245L7.42218 18.6955ZM27.5249 15.6238C26.9349 15.0678 26.6309 14.3798 26.6149 13.5598L25.9509 12.6758H34.0369C34.0689 10.4798 33.5039 8.84179 32.3409 7.7598C31.4399 6.90779 30.2759 6.4828 28.8509 6.4828C27.3599 6.4828 26.1239 6.9818 25.1409 7.9818C24.0749 9.0788 23.5429 10.5208 23.5429 12.3068C23.5429 13.9938 24.0349 15.4198 25.0179 16.5828C26.0009 17.7458 27.2539 18.3268 28.7769 18.3268C29.3669 18.3268 30.0389 18.2368 30.7929 18.0568V16.4348H29.6619C28.8099 16.4348 28.0979 16.1648 27.5249 15.6238ZM32.3579 11.1758C32.3579 10.9958 32.3339 10.7748 32.2839 10.5128C32.0389 9.0378 31.2849 8.3008 30.0239 8.3008C28.4999 8.3008 27.6229 9.2508 27.3939 11.1518L28.1309 11.1758H32.3579ZM50.7961 3.6067C51.6811 3.6067 52.2051 4.17269 52.3691 5.3027L54.0151 4.9587L53.5241 1.3217H42.9811L42.6381 3.0167C43.7681 3.0167 44.3331 3.4597 44.3331 4.3447V18.0817H47.3561V11.6427C47.3561 11.2497 47.5681 11.0037 47.9941 10.9057L52.0001 9.9227V8.74269H47.2571V3.6067H50.7961ZM57.5293 17.3686C56.7103 16.5496 56.3003 15.3216 56.3003 13.6826V4.24559C56.3003 3.24659 55.8423 2.8126 54.9243 2.9436L55.1213 1.5916L58.5373 0.952595L59.0773 1.3946V14.8866L60.5523 16.7796L58.4873 18.3266L57.5293 17.3686ZM67.1138 18.327C70.7668 18.327 72.5938 16.321 72.5938 12.307C72.5938 10.423 72.1108 8.97299 71.1438 7.956C70.1938 6.974 68.8498 6.482 67.1138 6.482C65.4748 6.482 64.1808 6.982 63.2308 7.981C62.2478 9.01299 61.7568 10.455 61.7568 12.307C61.7568 14.289 62.2318 15.788 63.1818 16.804C64.1158 17.82 65.4268 18.327 67.1138 18.327ZM69.7188 12.331C69.7188 9.595 68.8428 8.22699 67.0898 8.22699C66.2858 8.22699 65.6558 8.628 65.1968 9.43099C64.8038 10.136 64.6068 11.094 64.6068 12.307C64.6068 15.157 65.4338 16.582 67.0898 16.582C68.8428 16.582 69.7188 15.165 69.7188 12.331ZM77.2192 14.4607V7.21476H75.346C75.346 7.21476 74.7082 12.9459 74.5886 14.6245C74.4691 16.3029 75.2264 18.4725 77.817 18.4725C80.4077 18.4725 81.6832 16.3847 81.6832 16.3847L83.2377 18.4725L85.1905 16.8759L83.8355 15.0748V7.29656L83.2774 6.6825L80.0889 7.54218V8.77031C80.0889 8.77031 81.3245 9.38437 81.3245 10.1212V14.2969C81.3245 15.3204 79.6106 16.5075 78.8135 16.5075C78.0165 16.5075 77.2192 15.607 77.2192 14.4607ZM93.9077 9.7016C93.4157 9.1286 92.8587 8.8416 92.2367 8.8416C91.1717 8.8416 90.2707 9.2836 89.5327 10.1686L89.7297 11.9626V15.5746C89.7297 16.0506 89.8857 16.3616 90.1967 16.5086C90.4267 16.6066 90.8687 16.6566 91.5237 16.6566L91.2287 18.0816H86.9527V9.6526C86.9527 8.6856 86.4937 8.2516 85.5767 8.3496L85.7737 6.9976L89.1897 6.3596L89.7297 6.8266V8.4486C89.7457 8.4486 89.7627 8.4396 89.7797 8.4236C90.1887 7.8666 90.6887 7.4086 91.2787 7.0476C91.9007 6.6706 92.5067 6.4826 93.0967 6.4826C93.9317 6.4826 94.6287 6.7276 95.1857 7.2196L94.1537 9.62759L93.9077 9.7016ZM99.4113 4.3441C99.6573 4.06609 99.7803 3.7541 99.7803 3.4101C99.7803 3.0341 99.6493 2.7141 99.3873 2.4521C99.1253 2.1901 98.8133 2.0581 98.4533 2.0581C98.0763 2.0581 97.7573 2.1901 97.4953 2.4521C97.2333 2.7141 97.1013 3.0341 97.1013 3.4101C97.1013 3.7711 97.2333 4.0821 97.4953 4.3441C97.7573 4.6061 98.0763 4.73709 98.4533 4.73709C98.8303 4.73709 99.1493 4.6061 99.4113 4.3441ZM98.3303 17.3681C97.5113 16.5171 97.1013 15.2881 97.1013 13.6821V9.65209C97.1013 8.6531 96.6433 8.2191 95.7253 8.3501L95.9223 6.9981L99.3383 6.3591L99.8793 6.80209V14.8871L101.353 16.7791L99.2643 18.3271L98.3303 17.3681ZM109.463 17.4179C110.282 16.8449 110.692 16.0339 110.692 14.9849C110.692 14.1329 110.233 13.3219 109.316 12.5519C109.201 12.4539 108.93 12.2569 108.504 11.9629L106.76 10.8079C105.842 10.2019 105.392 9.7099 105.408 9.3329C105.424 8.67789 105.9 8.3499 106.834 8.3499C107.718 8.3499 108.283 8.5469 108.529 8.93989L108.824 10.0459C108.906 10.4229 109.209 10.6109 109.734 10.6109C109.963 10.6109 110.208 10.5869 110.471 10.5369V7.95689C109.684 6.9739 108.456 6.48289 106.784 6.48289C105.523 6.48289 104.531 6.75289 103.811 7.29289C103.106 7.80089 102.737 8.52989 102.705 9.4809C102.672 10.3979 103.098 11.2339 103.983 11.9869C104.195 12.1839 105.04 12.7409 106.514 13.6579C107.415 14.2149 107.866 14.7229 107.866 15.1819C107.866 16.0669 107.112 16.5089 105.605 16.5089H102.926V17.9339C103.811 18.1959 104.843 18.3269 106.023 18.3269C107.481 18.3269 108.628 18.0249 109.463 17.4179ZM120.35 10.7583C120.121 9.1533 119.474 8.3503 118.409 8.3503C117.508 8.3503 116.598 8.9153 115.681 10.0453L115.927 11.6923V18.0813H113.15V4.24629C113.15 3.24629 112.691 2.8123 111.773 2.9433L111.97 1.5913L115.386 0.952295L115.927 1.3953V8.2763C116.877 7.0803 118.048 6.4823 119.441 6.4823C120.538 6.4823 121.407 6.82629 122.046 7.5143C122.717 8.2683 123.054 9.3083 123.054 10.6353V18.0813H121.308L120.35 10.7583ZM135.39 4.3441C135.635 4.06609 135.758 3.7541 135.758 3.4101C135.758 3.0341 135.626 2.7141 135.364 2.4521C135.103 2.1901 134.79 2.0581 134.431 2.0581C134.054 2.0581 133.735 2.1901 133.473 2.4521C133.209 2.7141 133.078 3.0341 133.078 3.4101C133.078 3.7711 133.209 4.0821 133.473 4.3441C133.735 4.6061 134.054 4.73709 134.431 4.73709C134.808 4.73709 135.126 4.6061 135.39 4.3441ZM134.308 17.3681C133.487 16.5171 133.078 15.2881 133.078 13.6821V9.65209C133.078 8.6531 132.619 8.2191 131.702 8.3501L131.9 6.9981L135.316 6.3591L135.857 6.80209V14.8871L137.33 16.7791L135.241 18.3271L134.308 17.3681ZM144.557 8.3503C145.62 8.3503 146.269 9.1533 146.498 10.7583L147.455 18.0813H149.2V10.6113C149.2 9.28329 148.855 8.2513 148.169 7.51429C147.529 6.82629 146.67 6.4823 145.589 6.4823C144.227 6.4823 143.072 7.0803 142.123 8.27629H142.073V6.80129L141.532 6.35929L138.116 6.99829L137.921 8.3503C138.839 8.2183 139.297 8.65329 139.297 9.6523V18.0813H142.073V11.6923L141.827 10.0453C142.745 8.91529 143.654 8.3503 144.557 8.3503ZM165.197 17.9834C164.149 18.2124 163.216 18.3274 162.396 18.3274C161.25 18.3274 160.341 18.0074 159.669 17.3684C158.965 16.6804 158.644 15.7884 158.711 14.6904L159.325 3.3854L161.487 2.9434V6.7284H164.976V8.5954H161.487V14.8134C161.487 15.9434 161.963 16.5084 162.913 16.5084H165.197V17.9834ZM172.694 8.3503C173.757 8.3503 174.405 9.1533 174.634 10.7583L175.592 18.0813H177.337V10.6353C177.337 9.3083 177.001 8.2683 176.329 7.5143C175.692 6.82629 174.821 6.4823 173.726 6.4823C172.331 6.4823 171.16 7.0803 170.21 8.2763V1.3953L169.669 0.952295L166.253 1.5913L166.058 2.9433C166.976 2.8123 167.434 3.24629 167.434 4.24629V18.0813H170.21V11.6923L169.964 10.0453C170.882 8.9153 171.791 8.3503 172.694 8.3503ZM182.795 13.5598C182.809 14.3798 183.113 15.0678 183.704 15.6238C184.276 16.1648 184.989 16.4348 185.842 16.4348H186.973V18.0568C186.219 18.2368 185.547 18.3268 184.957 18.3268C183.433 18.3268 182.181 17.7458 181.196 16.5828C180.214 15.4198 179.723 13.9938 179.723 12.3068C179.723 10.5208 180.255 9.0788 181.319 7.9818C182.303 6.9818 183.54 6.4828 185.03 6.4828C186.456 6.4828 187.618 6.90779 188.519 7.7598C189.683 8.84179 190.249 10.4798 190.216 12.6758H182.131L182.795 13.5598ZM187.464 10.5128C187.513 10.7748 187.537 10.9958 187.537 11.1758H183.309L182.572 11.1518C182.803 9.2508 183.68 8.3008 185.203 8.3008C186.464 8.3008 187.218 9.0378 187.464 10.5128ZM213.02 11.7168C213.02 13.7978 212.456 15.4198 211.325 16.5828C210.162 17.7458 208.555 18.3268 206.507 18.3268C204.836 18.3268 203.444 17.8198 202.331 16.8038C201.069 15.6408 200.438 14.0018 200.438 11.8888V5.3028C200.438 4.4508 200.373 3.9018 200.242 3.6558C200.029 3.2138 199.552 2.9928 198.816 2.9928V1.3208H204.541L204.911 2.9928C203.781 2.9928 203.214 3.4188 203.214 4.2708V11.5938C203.214 13.1008 203.437 14.1418 203.88 14.7148C204.571 15.5998 205.433 16.0418 206.468 16.0418C208.752 16.0418 210.001 14.5098 210.215 11.4458L210.93 1.3208H213.02V11.7168ZM223.943 16.9266C224.867 16.1236 225.348 15.0426 225.38 13.6826C225.398 12.0776 224.765 10.7426 223.483 9.67659C223.351 9.56259 222.151 8.8496 219.883 7.5386C218.583 6.8016 217.95 5.9986 217.984 5.1306C218.017 4.5086 218.278 4.0336 218.771 3.7046C219.244 3.3616 219.893 3.2056 220.711 3.2386C221.81 3.2876 222.488 3.5416 222.751 3.9996C222.865 4.1966 222.981 4.6876 223.096 5.4746C223.178 5.9986 223.44 6.2616 223.882 6.2616C224.159 6.2616 224.504 6.1876 224.913 6.0396V2.4026C224.618 2.1576 224.11 1.8946 223.391 1.6166C222.441 1.2726 221.53 1.0996 220.662 1.0996C219.057 1.0996 217.771 1.5266 216.805 2.3796C215.837 3.2176 215.355 4.33359 215.355 5.72759C215.355 7.1726 215.984 8.40259 217.246 9.41959L219.017 10.5036L220.761 11.6106C222.023 12.3986 222.637 13.2606 222.605 14.1956C222.605 14.6876 222.391 15.1226 221.964 15.4996C221.474 15.9436 220.802 16.1646 219.949 16.1646L215.747 16.1156V17.9096C216.582 18.1716 217.827 18.3026 219.484 18.3026C221.384 18.3026 222.869 17.8446 223.943 16.9266ZM242.509 17.4675C242.509 17.6805 242.418 17.8765 242.238 18.0575C242.026 18.2365 241.813 18.3275 241.6 18.3275C241.191 18.3275 240.904 18.1465 240.739 17.7865L238.652 13.4615H231.525L230.566 15.7955C230.517 15.9105 230.491 16.0255 230.491 16.1405C230.491 16.5665 230.917 16.7795 231.771 16.7795L231.327 18.0815H225.947V16.7795C226.863 16.7795 227.419 16.5495 227.616 16.0905L232.778 3.5575C232.826 3.4265 232.852 3.3205 232.852 3.2385C232.852 2.7795 232.483 2.5505 231.744 2.5505L232.262 1.2475H235.922L242.436 17.1225C242.485 17.2375 242.509 17.3525 242.509 17.4675ZM237.644 11.3725H232.384L234.769 5.2535L237.644 11.3725Z"
                    fill="white" />
            </mask>
            <g mask="url(#mask0)">
                <path fill-rule="evenodd" clip-rule="evenodd" d="M-1 -2H244V19H-1V-2Z" fill="#BF0A30" />
            </g>
        </svg>
