<svg width="186" height="19" viewBox="0 0 186 19" fill="none" xmlns="http://www.w3.org/2000/svg">
            <path fill-rule="evenodd" clip-rule="evenodd"
                d="M7.7356 18.0133L12.3066 6.88131L16.7796 18.0133L22.9226 0.688305L21.3496 0.0493052L16.9266 10.9113L12.5276 0.000305176L8.1036 10.9113L5.5726 3.58831C5.5236 3.40831 5.4986 3.26031 5.4986 3.14631C5.4986 2.58931 6.1466 2.31031 7.4406 2.31031L6.8996 0.639305H0.313599V2.31031C1.0676 2.31031 1.6076 2.40131 1.9356 2.58031C2.0506 2.64631 2.1486 2.74431 2.2306 2.87531C2.2956 3.00631 2.3696 3.16231 2.4526 3.34231L7.7356 18.0133ZM26.9279 3.66201C27.1739 3.38401 27.2969 3.07201 27.2969 2.72801C27.2969 2.35201 27.1659 2.03201 26.9039 1.77001C26.6419 1.50801 26.3299 1.37601 25.9699 1.37601C25.5929 1.37601 25.2739 1.50801 25.0119 1.77001C24.7499 2.03201 24.6179 2.35201 24.6179 2.72801C24.6179 3.08901 24.7499 3.40001 25.0119 3.66201C25.2739 3.92401 25.5929 4.05501 25.9699 4.05501C26.3469 4.05501 26.6659 3.92401 26.9279 3.66201ZM25.8469 16.686C25.0279 15.835 24.6179 14.606 24.6179 13V8.97001C24.6179 7.97101 24.1599 7.53701 23.2419 7.66801L23.4389 6.31601L26.8549 5.67701L27.3959 6.12001V14.205L28.8699 16.097L26.7809 17.645L25.8469 16.686ZM34.1531 17.6453C34.9731 17.6453 35.9061 17.5303 36.9551 17.3013V15.8263H34.6691C33.7191 15.8263 33.2441 15.2613 33.2441 14.1313V7.91331H36.7341V6.04631H33.2441V2.26131L31.0811 2.70331L30.4671 14.0083C30.4011 15.1063 30.7211 15.9983 31.4261 16.6863C32.0971 17.3253 33.0061 17.6453 34.1531 17.6453ZM46.3916 10.0762C46.1626 8.47121 45.5156 7.6682 44.4506 7.6682C43.5496 7.6682 42.6396 8.23321 41.7226 9.36321L41.9686 11.0102V17.3992H39.1916V3.56421C39.1916 2.56421 38.7326 2.13021 37.8146 2.26121L38.0116 0.909205L41.4276 0.270205L41.9686 0.713205V7.5942C42.9186 6.3982 44.0896 5.80021 45.4826 5.80021C46.5796 5.80021 47.4486 6.1442 48.0876 6.8322C48.7586 7.58621 49.0956 8.62621 49.0956 9.95321V17.3992H47.3496L46.3916 10.0762ZM67.1808 17.645C69.3278 17.645 71.4578 17.186 73.5708 16.269V8.946H68.0168L67.5988 11.157H69.0978C70.1308 11.157 70.6468 11.598 70.6468 12.477V14.798C69.4178 15.173 68.3438 15.36 67.4268 15.36C65.8208 15.36 64.5188 14.788 63.5198 13.643C62.6838 12.678 62.1438 11.616 61.8978 10.454C61.7828 9.93101 61.7258 9.367 61.7258 8.762C61.7418 7.078 62.2578 5.64701 63.2738 4.47001C64.3718 3.22701 65.7398 2.60501 67.3778 2.60501C68.3118 2.60501 69.1068 2.68701 69.7618 2.85101C70.0398 2.93301 70.3758 3.04001 70.7698 3.17001C71.1458 3.31801 71.5798 3.49801 72.0718 3.71101L72.7358 1.67101C70.8508 0.836005 69.0408 0.418005 67.3038 0.418005C64.7488 0.418005 62.6428 1.25401 60.9878 2.92501C59.3498 4.563 58.5308 6.636 58.5308 9.142C58.5308 11.616 59.3338 13.656 60.9398 15.261C62.5288 16.851 64.6088 17.645 67.1808 17.645ZM83.4746 9.0195C82.9826 8.4465 82.4256 8.1595 81.8036 8.1595C80.7386 8.1595 79.8376 8.60151 79.0996 9.48651L79.2966 11.2805V14.8925C79.2966 15.3685 79.4526 15.6795 79.7636 15.8265C79.9936 15.9245 80.4356 15.9745 81.0906 15.9745L80.7956 17.3995H76.5196V8.9705C76.5196 8.0035 76.0606 7.5695 75.1436 7.66751L75.3406 6.31551L78.7566 5.67751L79.2966 6.14451V7.76651C79.3126 7.76651 79.3296 7.7575 79.3466 7.7415C79.7556 7.1845 80.2556 6.72651 80.8456 6.36551C81.4676 5.9885 82.0736 5.80051 82.6636 5.80051C83.4986 5.80051 84.1956 6.04551 84.7526 6.53751L83.7206 8.94551L83.4746 9.0195ZM89.8892 14.9416C89.2992 14.3856 88.9942 13.6976 88.9782 12.8776L88.3162 11.9936H96.4012C96.4342 9.79761 95.8682 8.15961 94.7042 7.07761C93.8032 6.22561 92.6412 5.80061 91.2152 5.80061C89.7242 5.80061 88.4882 6.29961 87.5052 7.29961C86.4392 8.39661 85.9082 9.83861 85.9082 11.6246C85.9082 13.3116 86.3982 14.7376 87.3822 15.9006C88.3652 17.0636 89.6182 17.6446 91.1422 17.6446C91.7322 17.6446 92.4042 17.5546 93.1582 17.3746V15.7526H92.0272C91.1742 15.7526 90.4612 15.4826 89.8892 14.9416ZM93.7222 10.4936C93.7222 10.3136 93.6982 10.0926 93.6492 9.8306C93.4032 8.35561 92.6492 7.61861 91.3872 7.61861C89.8642 7.61861 88.9882 8.56861 88.7582 10.4696L89.4942 10.4936H93.7222ZM102.078 14.9416C101.487 14.3856 101.183 13.6976 101.169 12.8776L100.505 11.9936H108.59C108.623 9.79761 108.056 8.15961 106.893 7.07761C105.992 6.22561 104.83 5.80061 103.404 5.80061C101.914 5.80061 100.677 6.29961 99.6927 7.29961C98.6287 8.39661 98.0967 9.83861 98.0967 11.6246C98.0967 13.3116 98.5877 14.7376 99.5697 15.9006C100.555 17.0636 101.806 17.6446 103.331 17.6446C103.921 17.6446 104.593 17.5546 105.347 17.3746V15.7526H104.216C103.363 15.7526 102.65 15.4826 102.078 14.9416ZM105.91 10.4936C105.91 10.3136 105.887 10.0926 105.838 9.8306C105.592 8.35561 104.838 7.61861 103.576 7.61861C102.054 7.61861 101.177 8.56861 100.946 10.4696L101.683 10.4936H105.91ZM120.409 7.17641C120.753 7.04541 120.925 6.84841 120.925 6.58641V6.04541H118.074L113.7 11.2314V0.712405L113.159 0.270405L109.743 0.909405L109.547 2.26141C110.465 2.13041 110.923 2.5644 110.923 3.5644V17.3994H113.7V13.0244C113.7 12.9604 113.726 12.8944 113.775 12.8284L113.898 12.6564C114.044 12.4604 114.216 12.4924 114.413 12.7544L118.738 17.1784C119.018 17.5224 119.328 17.6944 119.672 17.6944C119.95 17.6944 120.204 17.5794 120.435 17.3504C120.648 17.1044 120.753 16.8504 120.753 16.5884C120.753 16.3754 120.689 16.1794 120.558 15.9984L116.502 10.6164L117.632 9.3384L118.664 8.1594C119.026 7.75041 119.608 7.42141 120.409 7.17641ZM142.87 16.4901C142.87 16.7851 142.747 17.0471 142.501 17.2761C142.257 17.5221 141.987 17.6451 141.692 17.6451C141.363 17.6451 141.085 17.5061 140.858 17.2271L135.492 10.0761H133.779V14.4501C133.779 15.3021 134.344 15.7281 135.474 15.7281L135.106 17.3991H130.731V3.66211C130.731 2.77711 130.174 2.33511 129.06 2.33511L129.404 0.639105H135.733C137.447 0.639105 138.806 1.04111 139.803 1.84411C140.816 2.66311 141.321 3.77711 141.321 5.18511C141.321 7.10211 140.441 8.4711 138.677 9.2891L142.747 16.0481C142.829 16.1791 142.87 16.3271 142.87 16.4901ZM135.106 2.77711C137.219 2.77711 138.282 3.57211 138.3 5.16111C138.317 6.94711 137.209 7.84011 134.983 7.84011H133.654V2.77711H135.106ZM154.691 11.6249C154.691 15.6389 152.864 17.6449 149.212 17.6449C147.522 17.6449 146.212 17.1379 145.279 16.1219C144.329 15.1059 143.853 13.6069 143.853 11.6249C143.853 9.77291 144.344 8.3309 145.328 7.29891C146.278 6.29991 147.573 5.79991 149.212 5.79991C150.948 5.79991 152.291 6.29191 153.242 7.27391C154.208 8.2909 154.691 9.74091 154.691 11.6249ZM149.185 7.54491C150.938 7.54491 151.816 8.9129 151.816 11.6489C151.816 14.4829 150.938 15.8999 149.185 15.8999C147.532 15.8999 146.705 14.4749 146.705 11.6249C146.705 10.4119 146.901 9.45391 147.295 8.74891C147.753 7.94591 148.382 7.54491 149.185 7.54491ZM167.175 11.6249C167.175 15.6389 165.348 17.6449 161.696 17.6449C160.007 17.6449 158.696 17.1379 157.763 16.1219C156.813 15.1059 156.337 13.6069 156.337 11.6249C156.337 9.77291 156.828 8.3309 157.812 7.29891C158.762 6.29991 160.057 5.79991 161.696 5.79991C163.432 5.79991 164.775 6.29191 165.726 7.27391C166.692 8.2909 167.175 9.74091 167.175 11.6249ZM161.669 7.54491C163.423 7.54491 164.3 8.9129 164.3 11.6489C164.3 14.4829 163.423 15.8999 161.669 15.8999C160.016 15.8999 159.189 14.4749 159.189 11.6249C159.189 10.4119 159.385 9.45391 159.779 8.74891C160.237 7.94591 160.866 7.54491 161.669 7.54491ZM175.653 17.3013C174.604 17.5303 173.671 17.6453 172.851 17.6453C171.705 17.6453 170.796 17.3253 170.124 16.6863C169.42 15.9983 169.099 15.1063 169.166 14.0083L169.78 2.70331L171.942 2.26131V6.04631H175.431V7.91331H171.942V14.1313C171.942 15.2613 172.418 15.8263 173.368 15.8263H175.653V17.3013ZM184.033 16.7357C184.852 16.1627 185.262 15.3517 185.262 14.3027C185.262 13.4507 184.803 12.6397 183.886 11.8697C183.771 11.7717 183.499 11.5747 183.074 11.2807L181.328 10.1257C180.411 9.5197 179.96 9.02771 179.978 8.65071C179.993 7.9957 180.47 7.66771 181.404 7.66771C182.287 7.66771 182.854 7.86471 183.099 8.2577L183.394 9.3637C183.476 9.74071 183.779 9.92871 184.303 9.92871C184.533 9.92871 184.779 9.90471 185.039 9.8547V7.2747C184.253 6.29171 183.026 5.8007 181.355 5.8007C180.093 5.8007 179.102 6.0707 178.38 6.6107C177.675 7.1187 177.308 7.8477 177.275 8.79871C177.241 9.7157 177.667 10.5517 178.553 11.3047C178.766 11.5017 179.61 12.0587 181.083 12.9757C181.985 13.5327 182.436 14.0407 182.436 14.4997C182.436 15.3847 181.682 15.8267 180.174 15.8267H177.495V17.2517C178.38 17.5137 179.412 17.6447 180.591 17.6447C182.049 17.6447 183.198 17.3427 184.033 16.7357Z"
                fill="black" />
            <mask id="mask0" mask-type="alpha" maskUnits="userSpaceOnUse" x="0" y="0" width="186" height="19">
                <path fill-rule="evenodd" clip-rule="evenodd"
                    d="M7.7356 18.0133L12.3066 6.88131L16.7796 18.0133L22.9226 0.688305L21.3496 0.0493052L16.9266 10.9113L12.5276 0.000305176L8.1036 10.9113L5.5726 3.58831C5.5236 3.40831 5.4986 3.26031 5.4986 3.14631C5.4986 2.58931 6.1466 2.31031 7.4406 2.31031L6.8996 0.639305H0.313599V2.31031C1.0676 2.31031 1.6076 2.40131 1.9356 2.58031C2.0506 2.64631 2.1486 2.74431 2.2306 2.87531C2.2956 3.00631 2.3696 3.16231 2.4526 3.34231L7.7356 18.0133ZM26.9279 3.66201C27.1739 3.38401 27.2969 3.07201 27.2969 2.72801C27.2969 2.35201 27.1659 2.03201 26.9039 1.77001C26.6419 1.50801 26.3299 1.37601 25.9699 1.37601C25.5929 1.37601 25.2739 1.50801 25.0119 1.77001C24.7499 2.03201 24.6179 2.35201 24.6179 2.72801C24.6179 3.08901 24.7499 3.40001 25.0119 3.66201C25.2739 3.92401 25.5929 4.05501 25.9699 4.05501C26.3469 4.05501 26.6659 3.92401 26.9279 3.66201ZM25.8469 16.686C25.0279 15.835 24.6179 14.606 24.6179 13V8.97001C24.6179 7.97101 24.1599 7.53701 23.2419 7.66801L23.4389 6.31601L26.8549 5.67701L27.3959 6.12001V14.205L28.8699 16.097L26.7809 17.645L25.8469 16.686ZM34.1531 17.6453C34.9731 17.6453 35.9061 17.5303 36.9551 17.3013V15.8263H34.6691C33.7191 15.8263 33.2441 15.2613 33.2441 14.1313V7.91331H36.7341V6.04631H33.2441V2.26131L31.0811 2.70331L30.4671 14.0083C30.4011 15.1063 30.7211 15.9983 31.4261 16.6863C32.0971 17.3253 33.0061 17.6453 34.1531 17.6453ZM46.3916 10.0762C46.1626 8.47121 45.5156 7.6682 44.4506 7.6682C43.5496 7.6682 42.6396 8.23321 41.7226 9.36321L41.9686 11.0102V17.3992H39.1916V3.56421C39.1916 2.56421 38.7326 2.13021 37.8146 2.26121L38.0116 0.909205L41.4276 0.270205L41.9686 0.713205V7.5942C42.9186 6.3982 44.0896 5.80021 45.4826 5.80021C46.5796 5.80021 47.4486 6.1442 48.0876 6.8322C48.7586 7.58621 49.0956 8.62621 49.0956 9.95321V17.3992H47.3496L46.3916 10.0762ZM67.1808 17.645C69.3278 17.645 71.4578 17.186 73.5708 16.269V8.946H68.0168L67.5988 11.157H69.0978C70.1308 11.157 70.6468 11.598 70.6468 12.477V14.798C69.4178 15.173 68.3438 15.36 67.4268 15.36C65.8208 15.36 64.5188 14.788 63.5198 13.643C62.6838 12.678 62.1438 11.616 61.8978 10.454C61.7828 9.93101 61.7258 9.367 61.7258 8.762C61.7418 7.078 62.2578 5.64701 63.2738 4.47001C64.3718 3.22701 65.7398 2.60501 67.3778 2.60501C68.3118 2.60501 69.1068 2.68701 69.7618 2.85101C70.0398 2.93301 70.3758 3.04001 70.7698 3.17001C71.1458 3.31801 71.5798 3.49801 72.0718 3.71101L72.7358 1.67101C70.8508 0.836005 69.0408 0.418005 67.3038 0.418005C64.7488 0.418005 62.6428 1.25401 60.9878 2.92501C59.3498 4.563 58.5308 6.636 58.5308 9.142C58.5308 11.616 59.3338 13.656 60.9398 15.261C62.5288 16.851 64.6088 17.645 67.1808 17.645ZM83.4746 9.0195C82.9826 8.4465 82.4256 8.1595 81.8036 8.1595C80.7386 8.1595 79.8376 8.60151 79.0996 9.48651L79.2966 11.2805V14.8925C79.2966 15.3685 79.4526 15.6795 79.7636 15.8265C79.9936 15.9245 80.4356 15.9745 81.0906 15.9745L80.7956 17.3995H76.5196V8.9705C76.5196 8.0035 76.0606 7.5695 75.1436 7.66751L75.3406 6.31551L78.7566 5.67751L79.2966 6.14451V7.76651C79.3126 7.76651 79.3296 7.7575 79.3466 7.7415C79.7556 7.1845 80.2556 6.72651 80.8456 6.36551C81.4676 5.9885 82.0736 5.80051 82.6636 5.80051C83.4986 5.80051 84.1956 6.04551 84.7526 6.53751L83.7206 8.94551L83.4746 9.0195ZM89.8892 14.9416C89.2992 14.3856 88.9942 13.6976 88.9782 12.8776L88.3162 11.9936H96.4012C96.4342 9.79761 95.8682 8.15961 94.7042 7.07761C93.8032 6.22561 92.6412 5.80061 91.2152 5.80061C89.7242 5.80061 88.4882 6.29961 87.5052 7.29961C86.4392 8.39661 85.9082 9.83861 85.9082 11.6246C85.9082 13.3116 86.3982 14.7376 87.3822 15.9006C88.3652 17.0636 89.6182 17.6446 91.1422 17.6446C91.7322 17.6446 92.4042 17.5546 93.1582 17.3746V15.7526H92.0272C91.1742 15.7526 90.4612 15.4826 89.8892 14.9416ZM93.7222 10.4936C93.7222 10.3136 93.6982 10.0926 93.6492 9.8306C93.4032 8.35561 92.6492 7.61861 91.3872 7.61861C89.8642 7.61861 88.9882 8.56861 88.7582 10.4696L89.4942 10.4936H93.7222ZM102.078 14.9416C101.487 14.3856 101.183 13.6976 101.169 12.8776L100.505 11.9936H108.59C108.623 9.79761 108.056 8.15961 106.893 7.07761C105.992 6.22561 104.83 5.80061 103.404 5.80061C101.914 5.80061 100.677 6.29961 99.6927 7.29961C98.6287 8.39661 98.0967 9.83861 98.0967 11.6246C98.0967 13.3116 98.5877 14.7376 99.5697 15.9006C100.555 17.0636 101.806 17.6446 103.331 17.6446C103.921 17.6446 104.593 17.5546 105.347 17.3746V15.7526H104.216C103.363 15.7526 102.65 15.4826 102.078 14.9416ZM105.91 10.4936C105.91 10.3136 105.887 10.0926 105.838 9.8306C105.592 8.35561 104.838 7.61861 103.576 7.61861C102.054 7.61861 101.177 8.56861 100.946 10.4696L101.683 10.4936H105.91ZM120.409 7.17641C120.753 7.04541 120.925 6.84841 120.925 6.58641V6.04541H118.074L113.7 11.2314V0.712405L113.159 0.270405L109.743 0.909405L109.547 2.26141C110.465 2.13041 110.923 2.5644 110.923 3.5644V17.3994H113.7V13.0244C113.7 12.9604 113.726 12.8944 113.775 12.8284L113.898 12.6564C114.044 12.4604 114.216 12.4924 114.413 12.7544L118.738 17.1784C119.018 17.5224 119.328 17.6944 119.672 17.6944C119.95 17.6944 120.204 17.5794 120.435 17.3504C120.648 17.1044 120.753 16.8504 120.753 16.5884C120.753 16.3754 120.689 16.1794 120.558 15.9984L116.502 10.6164L117.632 9.3384L118.664 8.1594C119.026 7.75041 119.608 7.42141 120.409 7.17641ZM142.87 16.4901C142.87 16.7851 142.747 17.0471 142.501 17.2761C142.257 17.5221 141.987 17.6451 141.692 17.6451C141.363 17.6451 141.085 17.5061 140.858 17.2271L135.492 10.0761H133.779V14.4501C133.779 15.3021 134.344 15.7281 135.474 15.7281L135.106 17.3991H130.731V3.66211C130.731 2.77711 130.174 2.33511 129.06 2.33511L129.404 0.639105H135.733C137.447 0.639105 138.806 1.04111 139.803 1.84411C140.816 2.66311 141.321 3.77711 141.321 5.18511C141.321 7.10211 140.441 8.4711 138.677 9.2891L142.747 16.0481C142.829 16.1791 142.87 16.3271 142.87 16.4901ZM135.106 2.77711C137.219 2.77711 138.282 3.57211 138.3 5.16111C138.317 6.94711 137.209 7.84011 134.983 7.84011H133.654V2.77711H135.106ZM154.691 11.6249C154.691 15.6389 152.864 17.6449 149.212 17.6449C147.522 17.6449 146.212 17.1379 145.279 16.1219C144.329 15.1059 143.853 13.6069 143.853 11.6249C143.853 9.77291 144.344 8.3309 145.328 7.29891C146.278 6.29991 147.573 5.79991 149.212 5.79991C150.948 5.79991 152.291 6.29191 153.242 7.27391C154.208 8.2909 154.691 9.74091 154.691 11.6249ZM149.185 7.54491C150.938 7.54491 151.816 8.9129 151.816 11.6489C151.816 14.4829 150.938 15.8999 149.185 15.8999C147.532 15.8999 146.705 14.4749 146.705 11.6249C146.705 10.4119 146.901 9.45391 147.295 8.74891C147.753 7.94591 148.382 7.54491 149.185 7.54491ZM167.175 11.6249C167.175 15.6389 165.348 17.6449 161.696 17.6449C160.007 17.6449 158.696 17.1379 157.763 16.1219C156.813 15.1059 156.337 13.6069 156.337 11.6249C156.337 9.77291 156.828 8.3309 157.812 7.29891C158.762 6.29991 160.057 5.79991 161.696 5.79991C163.432 5.79991 164.775 6.29191 165.726 7.27391C166.692 8.2909 167.175 9.74091 167.175 11.6249ZM161.669 7.54491C163.423 7.54491 164.3 8.9129 164.3 11.6489C164.3 14.4829 163.423 15.8999 161.669 15.8999C160.016 15.8999 159.189 14.4749 159.189 11.6249C159.189 10.4119 159.385 9.45391 159.779 8.74891C160.237 7.94591 160.866 7.54491 161.669 7.54491ZM175.653 17.3013C174.604 17.5303 173.671 17.6453 172.851 17.6453C171.705 17.6453 170.796 17.3253 170.124 16.6863C169.42 15.9983 169.099 15.1063 169.166 14.0083L169.78 2.70331L171.942 2.26131V6.04631H175.431V7.91331H171.942V14.1313C171.942 15.2613 172.418 15.8263 173.368 15.8263H175.653V17.3013ZM184.033 16.7357C184.852 16.1627 185.262 15.3517 185.262 14.3027C185.262 13.4507 184.803 12.6397 183.886 11.8697C183.771 11.7717 183.499 11.5747 183.074 11.2807L181.328 10.1257C180.411 9.5197 179.96 9.02771 179.978 8.65071C179.993 7.9957 180.47 7.66771 181.404 7.66771C182.287 7.66771 182.854 7.86471 183.099 8.2577L183.394 9.3637C183.476 9.74071 183.779 9.92871 184.303 9.92871C184.533 9.92871 184.779 9.90471 185.039 9.8547V7.2747C184.253 6.29171 183.026 5.8007 181.355 5.8007C180.093 5.8007 179.102 6.0707 178.38 6.6107C177.675 7.1187 177.308 7.8477 177.275 8.79871C177.241 9.7157 177.667 10.5517 178.553 11.3047C178.766 11.5017 179.61 12.0587 181.083 12.9757C181.985 13.5327 182.436 14.0407 182.436 14.4997C182.436 15.3847 181.682 15.8267 180.174 15.8267H177.495V17.2517C178.38 17.5137 179.412 17.6447 180.591 17.6447C182.049 17.6447 183.198 17.3427 184.033 16.7357Z"
                    fill="white" />
            </mask>
            <g mask="url(#mask0)">
                <path fill-rule="evenodd" clip-rule="evenodd" d="M1 0H189V21H1V0Z" fill="#002868" />
            </g>
        </svg>